<?xml version="1.0" encoding="UTF-8"?>
<svg xmlns="http://www.w3.org/2000/svg" width="846" height="851" viewBox="0 0 846 851">
  <path d="M 820 490 L 819 489 L 817 469 L 814 458 L 806 437 L 803 437 L 790 453 L 724 519 L 726 545 L 727 546 L 727 572 L 726 573 L 726 583 L 725 584 L 725 590 L 722 605 L 714 629 L 704 649 L 691 668 L 671 689 L 644 708 L 632 714 L 613 721 L 598 725 L 593 725 L 586 727 L 577 727 L 576 728 L 553 728 L 552 727 L 537 726 L 518 722 L 501 716 L 489 710 L 474 700 L 442 670 L 213 440 L 211 440 L 166 486 L 159 496 L 154 506 L 152 512 L 152 517 L 412 777 L 426 789 L 451 805 L 479 816 L 499 820 L 506 820 L 507 821 L 533 821 L 534 820 L 555 818 L 589 808 L 632 787 L 659 770 L 684 751 L 699 738 L 737 699 L 751 682 L 773 651 L 787 627 L 805 587 L 813 562 L 818 539 L 819 524 L 820 523 Z M 329 147 L 133 345 L 62 419 L 48 440 L 41 454 L 33 476 L 29 496 L 29 505 L 28 506 L 28 528 L 29 529 L 29 539 L 30 540 L 31 552 L 39 581 L 49 606 L 64 635 L 78 657 L 98 684 L 122 712 L 141 731 L 166 753 L 190 771 L 210 784 L 244 802 L 268 812 L 296 820 L 311 823 L 328 824 L 329 825 L 352 825 L 353 824 L 369 823 L 390 818 L 410 810 L 411 807 L 403 801 L 326 724 L 310 727 L 302 727 L 301 728 L 268 728 L 267 727 L 248 725 L 233 721 L 215 714 L 198 705 L 179 691 L 160 672 L 150 659 L 143 648 L 134 630 L 124 599 L 122 582 L 121 581 L 121 569 L 120 568 L 122 535 L 127 513 L 133 496 L 139 484 L 152 465 L 199 416 L 405 208 L 405 205 L 362 163 L 343 150 L 334 147 Z M 27 311 L 26 331 L 25 332 L 25 345 L 26 346 L 27 364 L 35 396 L 40 407 L 42 407 L 54 392 L 123 323 L 122 308 L 121 307 L 121 296 L 120 295 L 120 275 L 121 274 L 121 262 L 122 261 L 124 244 L 135 210 L 147 188 L 159 172 L 173 157 L 186 146 L 203 135 L 217 128 L 236 121 L 260 116 L 297 115 L 298 116 L 306 116 L 327 120 L 345 126 L 361 134 L 379 147 L 438 204 L 634 400 L 638 401 L 678 360 L 689 345 L 696 326 L 696 324 L 592 220 L 434 65 L 412 49 L 393 39 L 371 31 L 352 27 L 345 27 L 344 26 L 301 27 L 276 32 L 254 39 L 235 47 L 203 64 L 179 80 L 155 99 L 112 142 L 86 175 L 67 204 L 58 220 L 53 232 L 51 234 L 39 263 L 34 278 Z M 497 25 L 496 26 L 481 27 L 463 31 L 441 39 L 440 42 L 452 51 L 521 119 L 539 117 L 540 116 L 550 116 L 551 115 L 577 115 L 578 116 L 586 116 L 602 119 L 631 129 L 648 138 L 665 150 L 688 173 L 705 198 L 713 215 L 719 233 L 723 252 L 724 269 L 725 270 L 724 300 L 723 301 L 723 309 L 719 328 L 713 346 L 704 364 L 693 380 L 443 635 L 443 637 L 489 682 L 507 693 L 513 695 L 519 695 L 773 437 L 785 423 L 800 399 L 806 386 L 811 371 L 816 345 L 816 308 L 815 307 L 815 300 L 811 279 L 806 265 L 806 262 L 794 232 L 776 198 L 763 178 L 736 143 L 692 99 L 673 84 L 651 69 L 619 51 L 594 40 L 573 33 L 545 27 L 529 26 L 528 25 Z" fill="#d1ac7c" fill-rule="evenodd"/>
</svg>
